<svg width="74" height="20" viewBox="0 0 74 20" fill="none" xmlns="http://www.w3.org/2000/svg">
<path fill-rule="evenodd" clip-rule="evenodd" d="M66.325 14.2789H65.179V10.9854H66.3841C67.4447 10.9854 68.0667 11.4561 68.0667 12.6417C68.0667 13.8281 67.3794 14.2789 66.325 14.2789ZM71.5313 5.91853V16.2H74.0062V5.91853H71.5313ZM62.7103 5.91853V16.2H66.4696C68.8986 16.2 70.6208 14.9754 70.6208 12.5583C70.6208 10.2698 69.0821 9.06428 66.5085 9.06428H65.179V5.91853H62.7103ZM61.2564 7.83964V5.91853H52.9727V7.83964H55.8806V16.2H58.3492V7.83964H61.2564ZM47.8713 14.4794C46.5613 14.4794 45.8941 13.4415 45.8941 11.0689C45.8941 8.67773 46.6009 7.63986 47.9958 7.63986C49.3447 7.63986 50.0064 8.67773 50.0064 11.0497C50.0064 13.4415 49.2989 14.4794 47.8713 14.4794ZM45.7106 5.91853H43.4247V19.159H45.8941V14.9945C46.5224 15.9099 47.4328 16.4005 48.4934 16.4005C50.8967 16.4005 52.5598 14.5047 52.5598 11.0497C52.5598 7.61387 50.9426 5.71876 48.6178 5.71876C47.4523 5.71876 46.4959 6.24761 45.835 7.24648L45.7106 5.91853ZM38.9656 13.7446C38.6508 14.1954 38.0683 14.5628 37.1975 14.5628C36.1627 14.5628 35.6386 13.9895 35.6386 13.1124C35.6386 11.9459 36.49 11.5204 38.6118 11.5204H38.9656V13.7446ZM41.4342 9.18674C41.4342 6.69847 40.1443 5.75707 37.5311 5.75707C35.8944 5.75707 34.6045 6.26676 33.8573 6.69847V8.72288C34.519 8.22619 35.9729 7.69802 37.2434 7.69802C38.4221 7.69802 38.9656 8.10372 38.9656 9.21274V9.7799H38.566C34.7872 9.7799 33.1109 11.0114 33.1109 13.0933C33.1109 15.1752 34.3946 16.3423 36.3072 16.3423C37.7605 16.3423 38.3825 15.8716 38.8606 15.3818H38.9656C38.9851 15.6459 39.0698 15.9941 39.1491 16.2H41.5586C41.4732 15.3626 41.4342 14.5245 41.4342 13.6864V9.18674ZM30.0793 16.2H33.0066L27.8789 8.74204L32.5285 1.999H29.9743L25.5083 8.53543V1.999H23V16.2H25.5083V9.53498L30.0793 16.2Z" fill="black"/>
<path fill-rule="evenodd" clip-rule="evenodd" d="M7.78836 0C3.48688 0 0 3.4383 0 7.67986C0 9.79995 0.87154 11.7197 2.28007 13.1093C3.68929 14.4996 7.0096 16.5116 7.20429 18.6241C7.23381 18.9408 7.46645 19.2 7.78836 19.2C8.11097 19.2 8.34361 18.9408 8.37313 18.6241C8.56783 16.5116 11.8874 14.4996 13.2967 13.1093C14.7059 11.7197 15.5767 9.79995 15.5767 7.67986C15.5767 3.4383 12.0898 0 7.78836 0Z" fill="#FF4433"/>
<path fill-rule="evenodd" clip-rule="evenodd" d="M7.81046 10.3971C9.32019 10.3971 10.5438 9.18987 10.5438 7.70183C10.5438 6.21311 9.32019 5.00586 7.81046 5.00586C6.30073 5.00586 5.07715 6.21311 5.07715 7.70183C5.07715 9.18987 6.30073 10.3971 7.81046 10.3971Z" fill="white"/>
</svg>
