<svg width="18" height="17" viewBox="0 0 18 17" fill="none" xmlns="http://www.w3.org/2000/svg">
<path d="M7.93457 0.684218C8.16609 -0.228029 9.46208 -0.228029 9.6936 0.684218L10.8855 5.3804C10.9931 5.80443 11.3879 6.09131 11.8245 6.06263L16.6591 5.74496C17.5983 5.68325 17.9987 6.91581 17.2027 7.41791L13.1047 10.0026C12.7346 10.236 12.5838 10.7002 12.746 11.1065L14.5421 15.6064C14.891 16.4805 13.8425 17.2422 13.119 16.6403L9.39443 13.5416C9.05812 13.2618 8.57005 13.2618 8.23374 13.5416L4.50916 16.6403C3.78565 17.2422 2.73717 16.4805 3.08607 15.6064L4.88217 11.1065C5.04435 10.7002 4.89353 10.236 4.5235 10.0026L0.425478 7.41791C-0.370575 6.91581 0.029908 5.68325 0.969051 5.74496L5.80369 6.06263C6.24023 6.09131 6.63508 5.80443 6.7427 5.3804L7.93457 0.684218Z" fill="url(#paint0_linear_79_145)"/>
<defs>
<linearGradient id="paint0_linear_79_145" x1="-3.56091" y1="8.71875" x2="8.43909" y2="8.71875" gradientUnits="userSpaceOnUse">
<stop offset="0.700292" stop-color="#FFCC00"/>
<stop offset="1" stop-color="#EBEBEB"/>
</linearGradient>
</defs>
</svg>
