<svg width="18" height="17" viewBox="0 0 18 17" fill="none" xmlns="http://www.w3.org/2000/svg">
<path d="M7.93463 0.684218C8.16615 -0.228029 9.46214 -0.228029 9.69367 0.684218L10.8855 5.3804C10.9932 5.80443 11.388 6.09131 11.8245 6.06263L16.6592 5.74496C17.5983 5.68325 17.9988 6.91581 17.2028 7.41791L13.1047 10.0026C12.7347 10.236 12.5839 10.7002 12.7461 11.1065L14.5422 15.6064C14.8911 16.4805 13.8426 17.2422 13.1191 16.6403L9.39449 13.5416C9.05818 13.2618 8.57011 13.2618 8.23381 13.5416L4.50922 16.6403C3.78571 17.2422 2.73723 16.4805 3.08613 15.6064L4.88223 11.1065C5.04441 10.7002 4.89359 10.236 4.52356 10.0026L0.425539 7.41791C-0.370514 6.91581 0.0299691 5.68325 0.969112 5.74496L5.80375 6.06263C6.24029 6.09131 6.63514 5.80443 6.74276 5.3804L7.93463 0.684218Z" fill="#FFCC00"/>
</svg>
