<svg width="80" height="20" viewBox="0 0 80 20" fill="none" xmlns="http://www.w3.org/2000/svg">
<path d="M26.3936 16.1652C26.6224 16.2468 27.0179 16.3699 27.5809 16.3699C29.5382 16.3699 30.3299 15.0388 31.4341 12.3987L35.8294 1.93799H33.4752L30.4966 9.47152L27.4141 1.93799H24.8102L29.2264 12.4188C28.7883 13.4628 28.351 14.1789 27.3514 14.1789C26.8931 14.1789 26.6022 14.118 26.3929 14.0363V16.1645L26.3936 16.1652ZM39.6017 16.3699C40.7471 16.3699 41.5591 16.1652 42.1638 15.7348V13.7499C41.5388 14.1802 40.789 14.4459 39.7475 14.4459C37.9764 14.4459 37.2475 13.0954 37.2475 10.9659C37.2475 8.7347 38.1432 7.5883 39.7684 7.5883C40.7269 7.5883 41.6637 7.91623 42.1638 8.2234V6.15414C41.6428 5.86771 40.7262 5.66293 39.4978 5.66293C36.3316 5.66293 34.6854 7.89414 34.6854 11.0261C34.6854 14.4653 36.2897 16.3693 39.6017 16.3693V16.3699ZM42.8941 14.0564V16.1645C42.8941 16.1645 43.2897 16.3699 43.8728 16.3699C45.9976 16.3699 46.5389 14.8956 46.6644 11.4779L46.8102 7.79242H49.3305V16.1645H51.8089V5.86905H44.7064L44.4978 11.3755C44.4148 13.5659 44.2683 14.2418 43.4564 14.2418C43.102 14.2418 42.8941 14.0564 42.8941 14.0564ZM55.2309 19.338C57.5433 19.338 58.3971 17.7211 59.1058 15.6124L62.3759 5.86838H59.9805L57.6681 13.606L55.3564 5.86838H52.7525L56.356 16.6156C56.0854 17.1068 55.6892 17.4139 55.0021 17.4139C54.5438 17.4139 54.1483 17.2707 53.8769 17.0044V18.99C53.8769 18.99 54.2522 19.338 55.2309 19.338ZM63.3161 5.86838V16.1652H65.7952V7.79309H69.6276V5.86771H63.3161V5.86838ZM71.0868 5.86838V16.1652H73.2325L77.0649 9.79877V16.1652H79.4812V5.86838H77.3355L73.5032 12.2348V5.86838H71.0868Z" fill="black"/>
<path d="M9.68205 19.2C15.0293 19.2 19.3641 14.9019 19.3641 9.6C19.3641 4.29807 15.0293 0 9.68205 0C4.3348 0 0 4.29807 0 9.6C0 14.9019 4.3348 19.2 9.68205 19.2Z" fill="#242729"/>
<path d="M6.7539 3.35865C5.70277 4.04984 4.96725 5.12251 4.70558 6.34589C4.4439 7.56927 4.67698 8.84562 5.35467 9.90036C6.03236 10.9551 7.10051 11.7039 8.32934 11.9858C9.55817 12.2677 10.8495 12.06 11.9255 11.4076L18.9892 6.94562C18.5041 5.27881 17.5731 3.7732 16.2951 2.58834C15.0171 1.40348 13.4396 0.583513 11.7298 0.215332L6.7539 3.35865Z" fill="#FF9D7C"/>
<path d="M6.7539 3.35865C5.70277 4.04984 4.96725 5.12251 4.70558 6.34589C4.4439 7.56927 4.67698 8.84562 5.35467 9.90036C6.03236 10.9551 7.10051 11.7039 8.32934 11.9858C9.55817 12.2677 10.8495 12.06 11.9255 11.4076L18.9892 6.94562C18.5041 5.27881 17.5731 3.7732 16.2951 2.58834C15.0171 1.40348 13.4396 0.583513 11.7298 0.215332L6.7539 3.35865Z" fill="#FF6432"/>
<path d="M6.7539 3.35865C5.70277 4.04984 4.96725 5.12251 4.70558 6.34589C4.4439 7.56927 4.67698 8.84562 5.35467 9.90036C6.03236 10.9551 7.10051 11.7039 8.32934 11.9858C9.55817 12.2677 10.8495 12.06 11.9255 11.4076L18.9892 6.94562C18.5041 5.27881 17.5731 3.7732 16.2951 2.58834C15.0171 1.40348 13.4396 0.583513 11.7298 0.215332L6.7539 3.35865Z" fill="url(#paint0_radial_82_717)"/>
<path d="M6.7539 3.35865C5.70277 4.04984 4.96725 5.12251 4.70558 6.34589C4.4439 7.56927 4.67698 8.84562 5.35467 9.90036C6.03236 10.9551 7.10051 11.7039 8.32934 11.9858C9.55817 12.2677 10.8495 12.06 11.9255 11.4076L18.9892 6.94562C18.5041 5.27881 17.5731 3.7732 16.2951 2.58834C15.0171 1.40348 13.4396 0.583513 11.7298 0.215332L6.7539 3.35865Z" fill="url(#paint1_linear_82_717)"/>
<path d="M0.373413 12.2493L7.43993 7.78534C7.97299 7.44865 8.56772 7.21936 9.19015 7.11056C9.81258 7.00176 10.4505 7.01558 11.0676 7.15124C11.6846 7.2869 12.2687 7.54173 12.7864 7.9012C13.3041 8.26066 13.7454 8.71771 14.0849 9.24626C14.4245 9.7748 14.6558 10.3645 14.7655 10.9816C14.8752 11.5988 14.8613 12.2313 14.7245 12.8432C14.5876 13.455 14.3306 14.0341 13.9681 14.5474C13.6055 15.0607 13.1446 15.4982 12.6115 15.8349L7.62734 18.9831C5.91813 18.6137 4.3415 17.7928 3.06448 16.6074C1.78746 15.4219 0.857604 13.9161 0.373413 12.2493Z" fill="#FFE66E"/>
<path d="M0.373413 12.2493L7.43993 7.78534C7.97299 7.44865 8.56772 7.21936 9.19015 7.11056C9.81258 7.00176 10.4505 7.01558 11.0676 7.15124C11.6846 7.2869 12.2687 7.54173 12.7864 7.9012C13.3041 8.26066 13.7454 8.71771 14.0849 9.24626C14.4245 9.7748 14.6558 10.3645 14.7655 10.9816C14.8752 11.5988 14.8613 12.2313 14.7245 12.8432C14.5876 13.455 14.3306 14.0341 13.9681 14.5474C13.6055 15.0607 13.1446 15.4982 12.6115 15.8349L7.62734 18.9831C5.91813 18.6137 4.3415 17.7928 3.06448 16.6074C1.78746 15.4219 0.857604 13.9161 0.373413 12.2493Z" fill="url(#paint2_linear_82_717)"/>
<defs>
<radialGradient id="paint0_radial_82_717" cx="0" cy="0" r="1" gradientTransform="matrix(9.51046 -6.57418 4.87944 6.93965 7.45654 13.3756)" gradientUnits="userSpaceOnUse">
<stop stop-color="#CC0700" stop-opacity="0.97"/>
<stop offset="0.067" stop-color="#CC0700" stop-opacity="0.962"/>
<stop offset="0.133" stop-color="#CC0700" stop-opacity="0.936"/>
<stop offset="0.2" stop-color="#CC0700" stop-opacity="0.891"/>
<stop offset="0.267" stop-color="#CC0700" stop-opacity="0.827"/>
<stop offset="0.333" stop-color="#CC0700" stop-opacity="0.745"/>
<stop offset="0.4" stop-color="#CC0700" stop-opacity="0.648"/>
<stop offset="0.467" stop-color="#CC0700" stop-opacity="0.541"/>
<stop offset="0.533" stop-color="#CC0700" stop-opacity="0.429"/>
<stop offset="0.6" stop-color="#CC0700" stop-opacity="0.322"/>
<stop offset="0.667" stop-color="#CC0700" stop-opacity="0.225"/>
<stop offset="0.733" stop-color="#CC0700" stop-opacity="0.143"/>
<stop offset="0.8" stop-color="#CC0700" stop-opacity="0.079"/>
<stop offset="0.867" stop-color="#CC0700" stop-opacity="0.034"/>
<stop offset="0.933" stop-color="#CC0700" stop-opacity="0.01"/>
<stop offset="1" stop-color="#CC0700" stop-opacity="0"/>
</radialGradient>
<linearGradient id="paint1_linear_82_717" x1="8.07827" y1="10.9042" x2="14.6965" y2="-5.20667" gradientUnits="userSpaceOnUse">
<stop stop-color="#FF8140" stop-opacity="0"/>
<stop offset="0.067" stop-color="#FF8140" stop-opacity="0.01"/>
<stop offset="0.133" stop-color="#FF8140" stop-opacity="0.036"/>
<stop offset="0.2" stop-color="#FF8140" stop-opacity="0.082"/>
<stop offset="0.267" stop-color="#FF8140" stop-opacity="0.147"/>
<stop offset="0.333" stop-color="#FF8140" stop-opacity="0.232"/>
<stop offset="0.4" stop-color="#FF8140" stop-opacity="0.332"/>
<stop offset="0.467" stop-color="#FF8140" stop-opacity="0.443"/>
<stop offset="0.533" stop-color="#FF8140" stop-opacity="0.557"/>
<stop offset="0.6" stop-color="#FF8140" stop-opacity="0.668"/>
<stop offset="0.667" stop-color="#FF8140" stop-opacity="0.768"/>
<stop offset="0.733" stop-color="#FF8140" stop-opacity="0.853"/>
<stop offset="0.8" stop-color="#FF8140" stop-opacity="0.918"/>
<stop offset="0.867" stop-color="#FF8140" stop-opacity="0.964"/>
<stop offset="0.933" stop-color="#FF8140" stop-opacity="0.991"/>
<stop offset="1" stop-color="#FF8140"/>
</linearGradient>
<linearGradient id="paint2_linear_82_717" x1="8.36664" y1="10.8786" x2="2.05745" y2="19.964" gradientUnits="userSpaceOnUse">
<stop stop-color="#FFD750" stop-opacity="0"/>
<stop offset="1" stop-color="#FFD750"/>
</linearGradient>
</defs>
</svg>
